<svg width="30" height="30" viewBox="0 0 30 30" fill="none" xmlns="http://www.w3.org/2000/svg">
<path d="M11.25 22.2656H7.5V9.14061H11.25V22.2656ZM9.49123 8.33626C8.51998 8.33626 7.73438 7.54875 7.73438 6.57749C7.73438 5.60624 8.52189 4.81873 9.49123 4.81873C10.4625 4.82058 11.25 5.60809 11.25 6.57749C11.25 7.54875 10.4625 8.33626 9.49123 8.33626ZM24.375 22.2656H20.625V14.1506C20.625 13.2 20.3531 12.5344 19.185 12.5344C17.2481 12.5344 16.875 14.1506 16.875 14.1506V22.2656H13.125V9.14061H16.875V10.395C17.4112 9.98437 18.7499 9.14246 20.625 9.14246C21.84 9.14246 24.375 9.86996 24.375 14.2649V22.2656Z" fill="#222222"/>
</svg>
