<svg width="30" height="30" viewBox="0 0 30 30" fill="none" xmlns="http://www.w3.org/2000/svg">
<path fill-rule="evenodd" clip-rule="evenodd" d="M17.6878 7.01587H16.6686V11.4764C16.6686 11.8745 16.7026 12.1443 16.7591 12.3152C16.8616 12.6006 17.0887 12.7341 17.4177 12.7341C17.7906 12.7341 18.1785 12.5079 18.5855 12.0414V12.6565H19.6075V7.01587H18.5855V11.3273C18.3587 11.6474 18.1442 11.8057 17.9398 11.8057C17.8029 11.8057 17.7225 11.7247 17.7001 11.5664C17.6878 11.5329 17.6878 11.4086 17.6878 11.169V11.1689V7.01587ZM13.1281 7.52626C12.9108 7.81137 12.8083 8.25209 12.8083 8.85516V10.8304C12.8083 11.4298 12.9108 11.8748 13.1281 12.1568C13.4108 12.5417 13.8088 12.7341 14.3183 12.7341C14.8302 12.7341 15.2279 12.5417 15.5106 12.1568C15.7248 11.8748 15.8273 11.4301 15.8273 10.8304V8.85516C15.8273 8.25209 15.7248 7.81107 15.5106 7.52626C15.2279 7.14048 14.8302 6.94774 14.3183 6.94774C13.8088 6.94774 13.4108 7.14048 13.1281 7.52626ZM10.8797 8.05966L10.075 5.08728H8.88268C9.0007 5.4342 9.12119 5.7818 9.24171 6.12948L9.24171 6.12948C9.36502 6.48522 9.48837 6.84105 9.60912 7.19633C9.97281 8.25209 10.1996 9.04789 10.3024 9.59112V12.6568H11.4355V9.59112L12.7991 5.08728H11.6528L10.8797 8.05966ZM21.2663 24.681C22.1425 24.5831 22.8702 23.9264 23.0752 23.0366C23.3671 21.7694 23.3683 20.3856 23.3683 19.0806V19.0562C23.3683 17.7584 23.3683 16.3842 23.0792 15.1246C22.8739 14.2346 22.1459 13.5781 21.2697 13.4802C19.1944 13.2485 17.0939 13.2473 15.003 13.2485C12.9114 13.2473 10.811 13.2485 8.73567 13.4802C7.85946 13.5778 7.13209 14.2346 6.92738 15.1246C6.63582 16.3921 6.63214 17.7757 6.63214 19.0806C6.63214 20.3856 6.63214 21.7694 6.92401 23.0366C7.12841 23.9267 7.85639 24.5831 8.7326 24.681C10.8076 24.9128 12.9084 24.914 14.9993 24.9128C17.0912 24.914 19.1907 24.9128 21.2663 24.681ZM19.4036 17.466C19.6957 17.0839 20.0975 16.8939 20.6149 16.8939C21.1225 16.8939 21.5249 17.0842 21.8075 17.4654C22.0196 17.7477 22.1206 18.1842 22.1206 18.7805V19.9366H20.0975V20.9267C20.0975 21.4429 20.2675 21.7007 20.6149 21.7007C20.8638 21.7007 21.0093 21.5656 21.067 21.2952C21.0759 21.2403 21.0891 21.0154 21.0891 20.6102H22.1206V20.7572C22.1206 21.0835 22.1086 21.3078 22.0991 21.4091C22.0653 21.6332 21.9856 21.836 21.8628 22.0153C21.5829 22.4207 21.1683 22.6205 20.6401 22.6205C20.111 22.6205 19.708 22.4299 19.4161 22.0487C19.2007 21.7691 19.0911 21.3296 19.0911 20.7364V18.7811C19.0911 18.1848 19.189 17.7483 19.4036 17.466ZM20.0981 19.095H21.1096V18.5785C21.1096 18.0626 20.9402 17.8042 20.6057 17.8042C20.2678 17.8042 20.0981 18.0623 20.0981 18.5785V19.095ZM13.4503 21.2277C13.2259 21.5448 13.0138 21.701 12.8107 21.701C12.6756 21.701 12.5986 21.6215 12.5741 21.4643C12.5648 21.4318 12.5648 21.3084 12.5648 21.0715V16.962H11.5533V21.375C11.5533 21.7694 11.5873 22.0358 11.6426 22.2052C11.7442 22.4882 11.9688 22.6208 12.2942 22.6208C12.6664 22.6208 13.0482 22.3961 13.4503 21.9351V22.544H14.4624V16.962H13.4503V21.2277ZM16.3485 17.4993C16.6747 17.0972 17.0218 16.894 17.3938 16.894C17.7958 16.894 18.0671 17.1058 18.2019 17.5244C18.2697 17.7488 18.3044 18.1177 18.3044 18.6462V20.8688C18.3044 21.3853 18.2697 21.757 18.2019 21.9936C18.0668 22.4091 17.7961 22.6209 17.3938 22.6209C17.0338 22.6209 16.687 22.4208 16.3485 22.0031V22.5439H15.3372V15.0526H16.3485V17.4993ZM16.8524 21.7011C17.1446 21.7011 17.2925 21.4525 17.2925 20.948V18.5658C17.2925 18.0624 17.1443 17.804 16.8524 17.804C16.6864 17.804 16.5173 17.8832 16.3482 18.0505V21.4522C16.5173 21.6216 16.6864 21.7011 16.8524 21.7011ZM7.88019 16.1068H9.06945V22.5436H10.1946V16.1068H11.4059V15.0526H7.88019V16.1068ZM14.806 11.0225C14.806 11.5442 14.6479 11.8054 14.3186 11.8054C13.989 11.8054 13.8306 11.5445 13.8306 11.0225V8.64979C13.8306 8.12805 13.989 7.8678 14.3186 7.8678C14.6479 7.8678 14.806 8.12775 14.806 8.64979V11.0225Z" fill="#222222"/>
</svg>
